# Blender v2.93.4 OBJ File: ''
# www.blender.org
mtllib Sword02.mtl
o Sword02_Sword02.002
v -0.028000 -1.566100 6.005198
v -1.610700 0.607000 -12.966201
v -0.028000 -1.566100 -12.966201
v -1.610700 0.607000 6.005198
v -0.028000 2.780200 -12.966201
v -0.028000 2.780200 6.005198
v 1.554800 0.607000 -12.966201
v 1.554800 0.607000 6.005198
v -0.028000 0.607000 -12.966201
v 0.019800 13.450500 13.683899
v 0.019800 15.118200 12.194899
v -1.662300 6.965800 10.595699
v -1.662300 6.965800 6.004498
v -1.662300 -5.720200 10.595699
v -1.662300 -5.720200 6.004498
v 0.069300 -11.884000 20.176798
v 0.019800 -16.902100 8.630299
v 1.701800 6.965800 6.004498
v 1.701800 6.965800 10.595699
v 1.701800 -5.720200 6.004498
v 1.701800 -5.720200 10.595699
v -0.014200 6.772300 72.646698
v -0.026600 5.898900 10.565699
v -2.318700 0.633300 79.383301
v -1.209700 0.628200 10.565699
v -0.014200 -9.949300 77.697601
v -0.026600 -4.724700 10.565699
v 1.156500 0.628200 10.565699
v 2.290400 0.633300 79.383301
v -0.014200 12.165400 102.178497
vt 0.831900 0.479000
vt 0.999500 0.546800
vt 0.999500 0.479000
vt 0.831900 0.546800
vt 0.999500 0.614600
vt 0.831900 0.614600
vt 0.999500 0.546800
vt 0.831900 0.546800
vt 0.999500 0.546800
vt 0.768300 0.947500
vt 0.781200 0.999500
vt 0.795100 0.745200
vt 0.831900 0.745200
vt 0.795100 0.349400
vt 0.831900 0.349400
vt 0.712000 0.157100
vt 0.812100 0.000500
vt 0.831900 0.745200
vt 0.795100 0.745200
vt 0.831900 0.349400
vt 0.795100 0.349400
vt 0.256700 0.739100
vt 0.795300 0.711900
vt 0.198300 0.547600
vt 0.795300 0.547400
vt 0.212900 0.217400
vt 0.795300 0.380400
vt 0.795300 0.547400
vt 0.198300 0.547600
vt 0.000500 0.907400
vn -0.4162 -0.9093 0.0000
vn -0.9718 -0.2359 0.0000
vn 0.4162 -0.9093 0.0000
vn -0.9718 0.2359 0.0000
vn -0.4162 0.9093 0.0000
vn 0.4162 0.9093 0.0000
vn 0.9718 0.2359 0.0000
vn 0.9718 -0.2359 0.0000
vn 0.0000 0.0000 -1.0000
vn -0.9710 0.1643 0.1737
vn -0.9791 0.1839 0.0872
vn -0.9907 0.1230 0.0583
vn -0.9977 0.0677 0.0000
vn -0.9959 -0.0909 0.0000
vn -0.9905 -0.1358 0.0198
vn -0.9788 -0.2029 0.0296
vn -0.9892 -0.1341 0.0591
vn 0.9977 0.0677 0.0000
vn 0.9791 0.1839 0.0872
vn 0.9907 0.1230 0.0583
vn 0.9710 0.1643 0.1737
vn 0.9912 -0.1314 0.0174
vn 0.9963 -0.0860 0.0000
vn 0.9894 -0.1359 0.0518
vn 0.9802 -0.1964 0.0260
vn 0.0000 0.2199 -0.9755
vn -0.0000 0.6266 -0.7793
vn -0.0000 0.3322 -0.9432
vn -0.0000 -0.1215 -0.9926
vn -0.0000 -0.0810 -0.9967
vn -0.0000 -0.2412 -0.9705
vn 0.0000 0.3213 0.9470
vn -0.0000 0.8546 0.5193
vn 0.0000 0.4903 0.8716
vn 0.0000 -0.2314 0.9729
vn 0.0000 -0.1538 0.9881
vn 0.0000 -0.4502 0.8929
vn -0.9379 0.3469 -0.0044
vn -0.9589 0.2836 -0.0097
vn -0.9756 0.2190 -0.0157
vn -0.9775 -0.2104 -0.0152
vn -0.9769 -0.2131 -0.0153
vn -0.9769 -0.2132 -0.0153
vn -0.9763 -0.2158 -0.0159
vn 0.9756 0.2190 -0.0149
vn 0.9380 0.3466 -0.0051
vn 0.9763 -0.2158 -0.0158
vn 0.9769 -0.2129 -0.0156
vn 0.9775 -0.2103 -0.0154
vn 0.9769 -0.2131 -0.0156
vn -0.9532 0.2981 -0.0514
vn 0.9532 0.2981 -0.0514
vn -0.9484 -0.2412 0.2058
vn 0.9484 -0.2412 0.2058
usemtl sword03.jpg
s 1
f 1/1/1 2/2/2 3/3/3
f 1/1/1 4/4/4 2/2/2
f 4/4/4 5/5/5 2/2/2
f 4/4/4 6/6/6 5/5/5
f 6/6/6 7/7/7 5/5/5
f 6/6/6 8/8/8 7/7/7
f 8/8/8 3/3/3 7/7/7
f 8/8/8 1/1/1 3/3/3
f 9/9/9 3/3/9 2/2/9
f 9/9/9 2/2/9 5/5/9
f 9/9/9 5/5/9 7/7/9
f 9/9/9 7/7/9 3/3/9
f 10/10/10 11/11/11 12/12/12
f 13/13/13 12/12/12 11/11/11
f 12/12/12 13/13/13 14/14/14
f 15/15/15 14/14/14 13/13/13
f 14/14/14 15/15/15 16/16/16
f 17/17/17 16/16/16 15/15/15
f 18/18/18 11/11/19 19/19/20
f 10/10/21 19/19/20 11/11/19
f 20/20/22 18/18/18 21/21/23
f 19/19/20 21/21/23 18/18/18
f 17/17/24 20/20/22 16/16/25
f 21/21/23 16/16/25 20/20/22
f 13/13/26 11/11/27 18/18/28
f 15/15/29 13/13/26 20/20/30
f 18/18/28 20/20/30 13/13/26
f 20/20/30 17/17/31 15/15/29
f 14/14/32 16/16/33 21/21/34
f 12/12/35 14/14/32 19/19/36
f 21/21/34 19/19/36 14/14/32
f 19/19/36 10/10/37 12/12/35
f 22/22/38 23/23/39 24/24/39
f 25/25/40 24/24/39 23/23/39
f 24/24/41 25/25/42 26/26/43
f 27/27/44 26/26/43 25/25/42
f 28/28/45 23/23/45 29/29/45
f 22/22/46 29/29/46 23/23/46
f 27/27/47 28/28/48 26/26/48
f 29/29/49 26/26/50 28/28/50
f 22/22/51 24/24/51 30/30/51
f 29/29/52 22/22/52 30/30/52
f 26/26/53 30/30/53 24/24/53
f 30/30/54 26/26/54 29/29/54
