# Blender v2.93.4 OBJ File: ''
# www.blender.org
mtllib Sword01.mtl
o Sword01_Sword01.001
v -1.672700 0.241400 -10.251100
v 0.099600 4.238699 -10.251100
v 1.771200 0.303400 -10.251100
v -0.001200 -9.254199 -10.317600
v -0.001200 -3.694000 -7.237000
v -0.001200 -3.694000 8.497800
v -1.672700 0.241400 8.497800
v 1.771200 0.303400 8.497800
v 0.099600 4.238699 8.497800
v -1.672700 0.241400 12.742800
v -0.001200 -3.694000 12.742800
v -0.001200 -5.081100 20.025000
v -1.672700 -1.145800 20.025000
v 1.771200 0.303400 12.742800
v 1.771200 -1.083800 20.025000
v 0.099700 4.238699 12.742800
v 0.099700 2.851600 20.025000
v -1.672700 0.210100 8.295700
v 0.099700 8.244800 8.295700
v 1.771200 0.334700 8.295700
v -0.001200 -7.699999 8.295700
v -1.672700 0.210100 12.718000
v -0.001200 -7.699999 12.718000
v 1.771200 0.334700 12.718000
v 0.099700 8.244799 12.718000
v -0.001200 -1.268800 30.006500
v -1.672700 2.666500 30.006500
v 1.771200 2.728500 30.006500
v 0.099700 6.663899 30.006500
v -0.001200 -3.708700 38.920700
v -1.672700 0.226700 38.920700
v 1.771200 0.288600 38.920700
v 0.099700 4.224000 38.920700
v -0.001200 -1.116300 46.449402
v -1.672700 2.667700 46.449402
v 1.771200 2.727300 46.449402
v 0.099700 6.511300 46.449402
v -0.001200 -2.174000 53.128799
v -1.672700 0.241400 53.179199
v 1.771200 0.303400 53.179199
v 0.099700 3.299200 53.281300
v 0.049200 0.272400 64.725304
vt 0.986800 0.542600
vt 0.986800 0.695900
vt 0.986800 0.546100
vt 0.989600 0.257200
vt 0.968400 0.317900
vt 0.748000 0.317900
vt 0.748000 0.542600
vt 0.748000 0.546100
vt 0.748000 0.695900
vt 0.696100 0.506700
vt 0.696100 0.268200
vt 0.573900 0.096800
vt 0.589600 0.292400
vt 0.696100 0.512000
vt 0.589600 0.297700
vt 0.696100 0.761100
vt 0.573900 0.589700
vt 0.742000 0.540800
vt 0.742000 0.999500
vt 0.742000 0.547900
vt 0.742000 0.089200
vt 0.703900 0.540800
vt 0.703900 0.089200
vt 0.703900 0.547900
vt 0.703900 0.999500
vt 0.462800 0.346200
vt 0.462800 0.584600
vt 0.462800 0.589900
vt 0.462800 0.839000
vt 0.348600 0.192100
vt 0.348600 0.387800
vt 0.348600 0.393100
vt 0.348600 0.685000
vt 0.261100 0.284300
vt 0.261100 0.509800
vt 0.261100 0.514900
vt 0.261100 0.751200
vt 0.187900 0.247800
vt 0.186900 0.356900
vt 0.186900 0.362200
vt 0.185000 0.617000
vt 0.030100 0.391700
vn 0.0001 0.0004 -1.0000
vn 0.0000 0.0000 -1.0000
vn 0.0002 0.0003 -1.0000
vn -0.0001 0.0070 -1.0000
vn -0.9861 -0.1452 0.0806
vn 0.4767 -0.8161 0.3267
vn -0.6153 -0.7883 0.0000
vn -0.9885 0.1509 0.0000
vn 0.9949 0.0543 0.0853
vn 0.9885 -0.1509 0.0000
vn -0.6029 0.7978 0.0000
vn 0.6153 0.7883 0.0000
vn -0.9179 -0.3899 -0.0743
vn -0.9204 -0.3909 -0.0003
vn -0.9179 -0.3899 0.0741
vn 0.9115 -0.4041 -0.0770
vn 0.9142 -0.4053 -0.0003
vn 0.9115 -0.4041 0.0768
vn 0.9179 0.3899 0.0743
vn 0.9204 0.3909 0.0003
vn 0.9179 0.3899 -0.0741
vn -0.9115 0.4041 0.0770
vn -0.9142 0.4053 0.0003
vn -0.9115 0.4041 -0.0768
vn -0.0000 0.0000 1.0000
vn -0.9977 -0.0674 0.0000
vn 0.8369 -0.5474 0.0000
vn -0.8417 -0.5400 0.0000
vn -0.9971 0.0762 0.0000
vn 0.9977 0.0674 0.0000
vn 0.9971 -0.0762 0.0000
vn -0.8369 0.5474 0.0000
vn 0.8417 0.5400 0.0000
vn -0.0086 -0.4846 0.8747
vn -0.9186 -0.3902 0.0634
vn -0.9202 -0.3908 -0.0219
vn 0.9122 -0.4045 0.0657
vn 0.9139 -0.4052 -0.0227
vn 0.9186 0.3902 -0.0634
vn 0.9202 0.3908 0.0219
vn -0.9122 0.4045 -0.0657
vn -0.9139 0.4052 0.0227
vn -0.9201 -0.3908 -0.0266
vn -0.9173 -0.3948 0.0526
vn 0.9138 -0.4051 -0.0303
vn 0.9108 -0.4092 0.0546
vn 0.9200 0.3907 0.0318
vn 0.9175 0.3949 -0.0474
vn -0.9138 0.4051 0.0303
vn -0.9111 0.4093 -0.0491
vn -0.9146 -0.3988 0.0668
vn -0.8874 -0.4588 -0.0452
vn 0.9094 -0.4139 0.0416
vn 0.8796 -0.4745 -0.0331
vn 0.9165 0.3996 -0.0206
vn 0.8999 0.4293 0.0769
vn -0.9096 0.4140 -0.0361
vn -0.8926 0.4429 0.0844
vn -0.8560 -0.5147 -0.0475
vn -0.8221 -0.5681 -0.0390
vn 0.8473 -0.5295 -0.0411
vn 0.8131 -0.5820 0.0139
vn 0.8774 0.4512 0.1631
vn 0.8655 0.4777 0.1508
vn -0.8695 0.4645 0.1680
vn -0.8540 0.4891 0.1772
vn -0.8149 -0.5665 0.1230
vn 0.8064 -0.5793 0.1187
vn 0.8677 0.4797 0.1307
vn -0.8600 0.4942 0.1269
usemtl sword02.jpg
s 1
f 1/1/1 2/2/2 3/3/3
f 3/3/3 4/4/4 1/1/1
f 1/1/5 5/5/6 6/6/7
f 6/6/7 7/7/8 1/1/5
f 5/5/6 3/3/9 8/8/10
f 8/8/10 6/6/7 5/5/6
f 3/3/9 2/2/11 9/9/12
f 9/9/12 8/8/10 3/3/9
f 2/2/11 1/1/5 7/7/8
f 7/7/8 9/9/12 2/2/11
f 10/10/13 11/11/13 12/12/14
f 12/12/14 13/13/15 10/10/13
f 11/11/16 14/14/16 15/15/17
f 15/15/17 12/12/18 11/11/16
f 14/14/19 16/16/19 17/17/20
f 17/17/20 15/15/21 14/14/19
f 16/16/22 10/10/22 13/13/23
f 13/13/23 17/17/24 16/16/22
f 18/18/2 19/19/2 20/20/2
f 20/20/2 21/21/2 18/18/2
f 22/22/25 23/23/25 24/24/25
f 24/24/25 25/25/25 22/22/25
f 18/18/26 21/21/27 23/23/28
f 23/23/28 22/22/29 18/18/26
f 21/21/27 20/20/30 24/24/31
f 24/24/31 23/23/28 21/21/27
f 20/20/30 19/19/32 25/25/33
f 25/25/33 24/24/31 20/20/30
f 19/19/32 18/18/26 22/22/29
f 22/22/29 25/25/33 19/19/32
f 3/3/9 5/5/6 4/4/34
f 1/1/5 4/4/34 5/5/6
f 13/13/15 12/12/14 26/26/35
f 26/26/35 27/27/36 13/13/15
f 12/12/18 15/15/17 28/28/37
f 28/28/37 26/26/38 12/12/18
f 15/15/21 17/17/20 29/29/39
f 29/29/39 28/28/40 15/15/21
f 17/17/24 13/13/23 27/27/41
f 27/27/41 29/29/42 17/17/24
f 27/27/36 26/26/35 30/30/43
f 30/30/43 31/31/44 27/27/36
f 26/26/38 28/28/37 32/32/45
f 32/32/45 30/30/46 26/26/38
f 28/28/40 29/29/39 33/33/47
f 33/33/47 32/32/48 28/28/40
f 29/29/42 27/27/41 31/31/49
f 31/31/49 33/33/50 29/29/42
f 31/31/44 30/30/43 34/34/51
f 34/34/51 35/35/52 31/31/44
f 30/30/46 32/32/45 36/36/53
f 36/36/53 34/34/54 30/30/46
f 32/32/48 33/33/47 37/37/55
f 37/37/55 36/36/56 32/32/48
f 33/33/50 31/31/49 35/35/57
f 35/35/57 37/37/58 33/33/50
f 35/35/52 34/34/51 38/38/59
f 38/38/59 39/39/60 35/35/52
f 34/34/54 36/36/53 40/40/61
f 40/40/61 38/38/62 34/34/54
f 36/36/56 37/37/55 41/41/63
f 41/41/63 40/40/64 36/36/56
f 37/37/58 35/35/57 39/39/65
f 39/39/65 41/41/66 37/37/58
f 39/39/60 38/38/59 42/42/67
f 38/38/62 40/40/61 42/42/68
f 40/40/64 41/41/63 42/42/69
f 41/41/66 39/39/65 42/42/70
